<svg xmlns="http://www.w3.org/2000/svg" width="206" height="38" viewBox="0 0 206 38" fill="none"><path d="M29.1212 24.4667C27.7894 24.4439 26.4809 24.8132 25.3623 25.5278C24.2437 26.2423 23.3657 27.2697 22.84 28.4791C22.3144 29.6885 22.165 31.0251 22.4108 32.3187C22.6566 33.6123 23.2865 34.8044 24.2202 35.743C25.154 36.6816 26.3494 37.3243 27.6541 37.5892C28.9588 37.8542 30.3138 37.7293 31.5465 37.2307C32.7792 36.732 33.8338 35.882 34.5759 34.789C35.318 33.696 35.7141 32.4095 35.7137 31.0933C35.7214 30.2304 35.5569 29.3744 35.2297 28.5744C34.9026 27.7743 34.419 27.0457 33.8068 26.4303C33.1946 25.815 32.4657 25.3248 31.6617 24.9879C30.8578 24.651 29.9945 24.4739 29.1212 24.4667Z" fill="#EB0045"></path><path d="M34.0471 1.67561C33.4569 1.11818 32.7598 0.683078 31.9968 0.395946C31.2338 0.108813 30.4203 -0.0245496 29.6044 0.00371153C28.7884 0.0319727 27.9864 0.221286 27.2456 0.560503C26.5049 0.899721 25.8403 1.38198 25.291 1.97889C25.291 1.97889 13.6775 14.586 13.4903 14.7346C13.4075 14.8268 13.2988 14.8926 13.1781 14.9236C13.0574 14.9546 12.9301 14.9495 12.8124 14.9088C12.6946 14.8682 12.5917 14.7939 12.5168 14.6954C12.4419 14.5969 12.3983 14.4786 12.3915 14.3555V6.35212C12.4099 5.53675 12.2632 4.72597 11.9602 3.96738C11.6571 3.20879 11.2037 2.51767 10.6266 1.9346C10.0495 1.35152 9.3604 0.888242 8.59965 0.57195C7.8389 0.255658 7.02187 0.0927283 6.19653 0.0927283C5.37118 0.0927283 4.55415 0.255658 3.7934 0.57195C3.03265 0.888242 2.34351 1.35152 1.76644 1.9346C1.18936 2.51767 0.735975 3.20879 0.432901 3.96738C0.129826 4.72597 -0.0168324 5.53675 0.00153466 6.35212V31.7211C0.00153466 35.1602 2.49672 37.9322 5.9157 37.9989C8.5091 38.0474 10.3536 36.5159 11.1577 35.5575L34.3602 10.4918C35.4851 9.27374 36.0823 7.66864 36.0238 6.02061C35.9653 4.37258 35.2557 2.81279 34.0471 1.67561Z" fill="#EB0045"></path><path d="M70.7659 35.2542H66.6196L58.8762 25.6798L55.0644 30.5959V35.2542H51.6239V2.30644H54.9386V25.51L65.9873 10.8952H69.9772L60.8896 23.1596L70.7659 35.2542Z" fill="white"></path><path d="M76.855 7.98981H73.7215V4.95706H76.8612L76.855 7.98981ZM76.855 35.2542H73.7215V10.8952H76.8612L76.855 35.2542Z" fill="white"></path><path d="M102.08 35.2542H98.8575V21.0246C98.8649 20.0392 98.6723 19.0625 98.2912 18.1519C97.9101 17.2414 97.3481 16.4156 96.6385 15.7233C95.1715 14.2282 93.4988 13.5033 91.5223 13.5033C90.5486 13.4967 89.5842 13.6907 88.6907 14.073C87.7971 14.4552 86.9939 15.0173 86.3325 15.7233C85.6284 16.4175 85.0728 17.2446 84.699 18.1553C84.3252 19.0661 84.1407 20.0419 84.1565 21.0246V35.2542H80.9339V21.3642C80.9339 18.2041 81.9375 15.602 83.9478 13.5033C84.9287 12.5025 86.1032 11.7066 87.4015 11.1631C88.6998 10.6197 90.0954 10.3396 91.5054 10.3396C92.9154 10.3396 94.3111 10.6197 95.6094 11.1631C96.9077 11.7066 98.0822 12.5025 99.0631 13.5033C101.073 15.5959 102.077 18.2041 102.077 21.3642L102.08 35.2542Z" fill="white"></path><path d="M130.571 35.2542H127.471V31.4512C124.874 34.4839 121.693 35.9366 117.926 35.8092C116.328 35.7675 114.756 35.4007 113.308 34.7317C111.86 34.0628 110.567 33.106 109.51 31.9213C107.232 29.4517 105.991 26.2181 106.038 22.877C106.084 19.5358 107.416 16.3374 109.762 13.931C112.233 11.3653 115.204 10.1704 118.681 10.2917C120.302 10.3328 121.897 10.7042 123.366 11.3826C124.835 12.061 126.147 13.0318 127.219 14.2342C128.356 15.3961 129.24 16.776 129.817 18.2887C130.393 19.8014 130.65 21.4148 130.571 23.0292V35.2542ZM109.259 22.82C109.165 25.2999 110.045 27.7195 111.714 29.5739C112.485 30.4787 113.438 31.2154 114.512 31.7374C115.586 32.2595 116.758 32.5555 117.953 32.6067C120.59 32.734 122.809 31.7939 124.65 29.8287C125.555 28.8908 126.262 27.7842 126.729 26.5736C127.196 25.363 127.415 24.0725 127.373 22.7775C127.359 20.3269 126.401 17.9736 124.693 16.1964C123.914 15.3241 122.952 14.6286 121.876 14.1575C120.799 13.6864 119.631 13.4508 118.454 13.467C117.239 13.4453 116.033 13.6772 114.915 14.1476C113.797 14.6179 112.792 15.3161 111.966 16.1964C111.097 17.0703 110.41 18.1047 109.946 19.2406C109.481 20.3766 109.248 21.5918 109.259 22.8169V22.82Z" fill="white"></path><path d="M168.898 35.2542H165.592V20.2967C165.633 18.5551 165.071 16.8518 163.999 15.4686C163.513 14.8296 162.879 14.3143 162.151 13.9652C161.424 13.6161 160.622 13.4432 159.813 13.4609C158.121 13.445 156.488 14.0714 155.249 15.2108C154.638 15.7614 154.153 16.4355 153.828 17.1874C153.503 17.9393 153.345 18.7514 153.365 19.5689V35.2512H150.016V19.5689C150.039 18.7467 149.878 17.9297 149.545 17.176C149.212 16.4223 148.715 15.7503 148.089 15.2078C146.872 14.0628 145.249 13.4346 143.568 13.4579C142.765 13.4405 141.97 13.6138 141.249 13.9631C140.528 14.3125 139.903 14.8277 139.425 15.4655C138.375 16.7909 137.875 18.3709 137.875 20.2937V35.2512H134.567V20.6819C134.567 17.6491 135.404 15.1683 137.12 13.3305C138.712 11.5796 140.805 10.597 143.399 10.3827C146.877 10.0794 149.639 11.623 151.686 14.9136C153.739 11.623 156.501 10.0824 159.973 10.3827C162.566 10.5949 164.659 11.5806 166.295 13.3305C168.011 15.1683 168.888 17.6461 168.888 20.6819L168.898 35.2542Z" fill="white"></path><path d="M205.665 28.8005C203.152 33.5438 199.248 35.8517 194.03 35.8092C192.362 35.8072 190.711 35.4774 189.173 34.8391C187.635 34.2008 186.241 33.2667 185.072 32.0911C182.655 29.7143 181.286 26.4906 181.263 23.1215C181.239 19.7524 182.563 16.5104 184.946 14.1008C187.499 11.5806 190.516 10.2553 194.03 10.2128C196.526 10.1716 198.976 10.8709 201.065 12.2205C203.118 13.5458 204.625 15.1683 205.503 17.176L205.963 18.2466H202.357C200.558 15.1259 197.836 13.5033 194.15 13.4154C191.695 13.3729 189.504 14.2706 187.536 16.1449C186.561 17.0123 185.784 18.0741 185.255 19.2603C184.726 20.4464 184.457 21.73 184.467 23.0262C184.454 24.2998 184.701 25.563 185.192 26.7406C185.684 27.9181 186.41 28.9858 187.328 29.8802C188.193 30.7857 189.241 31.5011 190.404 31.9798C191.568 32.4584 192.82 32.6896 194.08 32.6582C197.805 32.6157 200.571 31.0781 202.412 28.0878H206L205.665 28.8005Z" fill="white"></path><path d="M177.025 7.87153H173.885V4.83878H177.025V7.87153ZM177.025 35.136H173.885V10.7739H177.025V35.136Z" fill="white"></path></svg>